<svg width="180" height="34" viewBox="0 0 180 34" fill="none" xmlns="http://www.w3.org/2000/svg">
<path fill-rule="evenodd" clip-rule="evenodd" d="M147.956 8.2247C145.726 8.2247 143.935 6.43355 143.935 4.13063C143.935 1.86427 145.762 0 148.029 0C150.295 0 152.159 1.79116 152.159 4.05752C152.159 6.36044 150.295 8.2247 147.956 8.2247ZM71.5207 32.2774H64.8678V4.27685H71.6304V11.9532C71.6304 11.9532 74.6278 9.39444 78.5391 9.39444C85.1554 9.39444 89.0667 14.9872 89.0667 21.0918C89.0667 27.3426 85.0823 32.8257 78.7585 32.8257C75.7976 32.8257 73.6043 31.985 71.5207 29.9379V32.2774ZM50.3558 32.8257C43.4471 32.8257 38.695 28.622 38.695 21.0918C38.695 14.2927 43.5567 9.39444 50.173 9.39444C56.6431 9.39444 61.2124 13.6713 61.2124 21.6767L61.2139 21.8712C61.2156 21.9847 61.2186 22.0878 61.2214 22.1862C61.2292 22.4608 61.236 22.6995 61.2124 23.0292H45.421C46.0059 25.6976 48.126 26.977 50.6848 26.977C52.7872 26.977 54.2072 25.5797 55.343 24.1332L55.5465 23.8699C55.5465 23.8699 58.8613 25.7811 60.4164 26.7155L60.8469 26.977C58.8729 30.4862 55.0713 32.8257 50.3558 32.8257ZM8.75709 32.2774L0.2034 9.83309H7.36803L11.8276 22.2615L15.9217 9.83309H21.3683L25.6817 22.3346L30.1048 9.83309H37.1597L28.7157 32.2774H22.8305L18.6633 20.2145L14.6423 32.2774H8.75709ZM50.0999 15.0969C52.2201 15.0969 53.3898 16.1204 54.194 18.2771H45.6769C46.5176 16.1935 47.797 15.0969 50.0999 15.0969ZM77.0038 15.6818C80.0744 15.6818 82.3042 18.0943 82.3042 20.9456C82.3042 24.1258 80.6227 26.7943 77.2963 26.7943C73.7505 26.7943 71.4476 24.5644 71.4476 21.0918C71.4476 17.8385 73.8236 15.6818 77.0038 15.6818ZM103.762 33.045C96.8894 33.045 91.6255 27.4157 91.6255 21.1649C91.6255 14.4389 96.999 9.39444 103.908 9.39444C110.707 9.39444 116.007 14.2927 116.007 21.0552C116.007 27.8909 111.072 33.045 103.762 33.045ZM103.871 15.7914C107.051 15.7914 109.245 18.0578 109.245 20.9456C109.245 24.4548 107.198 26.6115 103.835 26.6115C100.728 26.6115 98.4246 24.272 98.4246 21.2746C98.4246 18.204 100.581 15.7914 103.871 15.7914ZM133.078 32.2774H127.01L117.616 9.83309H125.219L130.117 22.9561L134.723 9.83309H141.888L133.078 32.2774ZM151.392 9.83309H144.593V32.2774H151.392V9.83309ZM155.047 21.1649C155.047 27.4157 160.311 33.045 167.183 33.045C174.494 33.045 179.429 27.8909 179.429 21.0552C179.429 14.2927 174.128 9.39444 167.329 9.39444C160.421 9.39444 155.047 14.4389 155.047 21.1649ZM172.666 20.9456C172.666 18.0578 170.473 15.7914 167.293 15.7914C164.003 15.7914 161.846 18.204 161.846 21.2746C161.846 24.272 164.149 26.6115 167.256 26.6115C170.619 26.6115 172.666 24.4548 172.666 20.9456Z" fill="white"/>
</svg>
